<svg width="147" height="20" viewBox="0 0 147 20" fill="none" xmlns="http://www.w3.org/2000/svg">
<path d="M17.7015 4.3189C20.1334 4.3189 22.2041 5.8689 22.9912 8.03361C23.1043 8.33802 23.188 8.65567 23.2438 8.98067C23.3011 9.30125 23.3363 9.62625 23.3363 9.96007C23.3363 10.2939 23.3011 10.6218 23.2438 10.9395C23.188 11.2689 23.1028 11.5836 22.9912 11.8895C22.8781 12.2012 22.7401 12.4983 22.5785 12.7792C22.4141 13.0645 22.2261 13.3365 22.0161 13.5851C20.9822 14.8174 19.4344 15.6027 17.7015 15.6027C15.2667 15.6027 13.1961 14.0542 12.4104 11.888C12.3003 11.5821 12.2137 11.266 12.1564 10.938C12.102 10.6204 12.0683 10.2954 12.0683 9.9586C12.0683 9.62184 12.102 9.29978 12.1564 8.97919L8.45715 8.32772C8.3661 8.85861 8.3147 9.40419 8.3147 9.9586C8.3147 10.513 8.3661 11.0601 8.45715 11.5924C8.55113 12.1365 8.69358 12.666 8.87715 13.1777C10.1885 16.7836 13.644 19.3615 17.7015 19.3615C20.5857 19.3615 23.1689 18.0542 24.89 15.9998C25.241 15.5851 25.5553 15.1336 25.8284 14.6601C26.103 14.188 26.335 13.6924 26.5245 13.1762C26.7095 12.666 26.849 12.1351 26.9445 11.591C27.0385 11.0586 27.0884 10.516 27.0884 9.95714C27.0884 9.39831 27.0385 8.85713 26.9445 8.32625C26.849 7.78066 26.7095 7.24979 26.5245 6.74096C25.2131 3.13361 21.7576 0.555664 17.7015 0.555664V4.31449V4.3189Z" fill="#9E9E9E"/>
<path d="M9.42202 4.3189C6.98719 4.3189 4.91803 5.8689 4.1309 8.03361C4.01929 8.33802 3.93411 8.65567 3.87684 8.98067C3.82104 9.30125 3.78579 9.62625 3.78579 9.96007C3.78579 10.2939 3.82104 10.6218 3.87684 10.9395C3.93411 11.2689 4.02076 11.5836 4.1309 11.8895C4.24398 12.2012 4.38055 12.4983 4.54356 12.7792C4.70803 13.0645 4.896 13.3365 5.106 13.5851C6.13691 14.8174 7.68621 15.6027 9.42055 15.6027C11.8554 15.6027 13.9245 14.0542 14.7102 11.888C14.8233 11.5821 14.907 11.266 14.9657 10.938C15.0201 10.6204 15.0553 10.2954 15.0553 9.9586C15.0553 9.62184 15.0201 9.29978 14.9657 8.97919L18.665 8.32772C18.7575 8.85861 18.8089 9.40419 18.8089 9.9586C18.8089 10.513 18.7575 11.0601 18.665 11.5924C18.5695 12.1365 18.43 12.666 18.245 13.1777C16.9321 16.7836 13.4781 19.3615 9.42202 19.3615C6.53488 19.3615 3.95468 18.0542 2.23209 15.9998C1.88111 15.5851 1.56831 15.1336 1.29222 14.6601C1.02055 14.188 0.785584 13.6924 0.597612 13.1762C0.412577 12.666 0.274533 12.1351 0.17761 11.591C0.0850923 11.0586 0.0322266 10.516 0.0322266 9.95714C0.0322266 9.39831 0.0836237 8.85713 0.17761 8.32625C0.274533 7.78066 0.412577 7.24979 0.597612 6.74096C1.91048 3.13361 5.36446 0.555664 9.42202 0.555664V4.31449V4.3189Z" fill="#9E9E9E"/>
<path d="M36.4327 9.78213H32.8979V7.84977H43.1556V9.78213H39.5989V11.8233H36.4327V9.78213ZM37.9937 7.28506C37.3006 7.28506 36.6779 7.20565 36.1287 7.04536C35.5795 6.88653 35.1096 6.6586 34.7189 6.36154C34.3283 6.06448 34.0317 5.71301 33.829 5.3086C33.6263 4.90272 33.525 4.46154 33.525 3.9836C33.525 3.50566 33.6263 3.06448 33.829 2.6586C34.0317 2.25271 34.3283 1.90272 34.7189 1.60566C35.1096 1.3086 35.5795 1.08065 36.1287 0.921831C36.6779 0.761537 37.3006 0.682129 37.9937 0.682129C38.6869 0.682129 39.3096 0.761537 39.8588 0.921831C40.408 1.08065 40.8779 1.3086 41.2686 1.60566C41.6592 1.90272 41.9544 2.25418 42.157 2.6586C42.3597 3.06448 42.461 3.50566 42.461 3.9836C42.461 4.46154 42.3597 4.90272 42.157 5.3086C41.9544 5.71448 41.6577 6.06595 41.2686 6.36154C40.8779 6.6586 40.408 6.88653 39.8588 7.04536C39.3081 7.20565 38.6869 7.28506 37.9937 7.28506ZM37.9937 5.41742C38.5004 5.41742 38.9233 5.29536 39.2626 5.0483C39.6018 4.80271 39.7648 4.44683 39.7501 3.9836C39.7501 3.52036 39.5842 3.16595 39.2508 2.91889C38.9189 2.6733 38.4989 2.54977 37.9923 2.54977C37.4856 2.54977 37.0671 2.6733 36.7352 2.91889C36.4033 3.16448 36.2359 3.52036 36.2359 3.9836C36.2212 4.44683 36.3842 4.80124 36.7249 5.0483C37.0642 5.29389 37.4871 5.41742 37.9937 5.41742ZM36.5414 12.5189H50.3779V16.7321H39.7075V17.6218H50.3779V19.338H38.6443C38.0084 19.338 37.4989 19.1645 37.1156 18.816C36.7323 18.4689 36.5414 17.991 36.5414 17.3821V15.0145H47.2117V14.2321H36.5414V12.5159V12.5189ZM40.6841 10.2821H43.6344V0.879187H46.5832V11.7159H40.6841V10.2821ZM47.4291 0.879187H50.3793V11.7159H47.4291V0.879187Z" fill="#9E9E9E"/>
<path d="M53.522 9.8691C54.4765 9.66763 55.4046 9.3147 56.3092 8.81617C57.2124 8.31617 57.9892 7.67646 58.6413 6.89411H53.588V4.96175H59.7471C59.9644 4.3691 60.0936 3.73234 60.1377 3.04999H53.9141V1.11764H63.3259V2.20293C63.3259 2.78234 63.2789 3.33234 63.1849 3.85293C63.0909 4.37352 62.9573 4.87352 62.784 5.35146H66.0794V0.87793H69.2455V11.1073H66.0794V7.28528H61.7413C60.9895 8.32793 59.9997 9.20293 58.7705 9.91322C57.5413 10.6235 56.1257 11.1735 54.5206 11.5647L53.5234 9.87058L53.522 9.8691ZM58.186 19.3382C57.4914 19.3382 56.9965 19.1779 56.6999 18.8603C56.4032 18.5412 56.2549 18.0573 56.2549 17.4059V11.9338H69.2455V19.3397H58.186V19.3382ZM66.0794 13.8662H59.4211V17.4059H66.0794V13.8662Z" fill="#9E9E9E"/>
<path d="M79.6341 3.26764V5.37499C79.6341 6.27352 79.7061 7.08675 79.8515 7.81763C79.9954 8.54851 80.2421 9.22205 80.5887 9.83676C80.9352 10.4529 81.3949 11.0279 81.9661 11.5632C82.5374 12.0985 83.2423 12.6206 84.0808 13.1265L82.7577 14.9073C82.2804 14.6765 81.8061 14.4 81.3361 14.0823C80.8662 13.7647 80.4256 13.4132 80.013 13.0294C79.6018 12.6456 79.2259 12.2441 78.8852 11.8235C78.5459 11.4044 78.2669 10.9618 78.0496 10.4985C77.819 10.9618 77.5297 11.4176 77.1831 11.8662C76.8366 12.3147 76.4518 12.7426 76.0333 13.1471C75.6133 13.5529 75.1727 13.925 74.7101 14.2647C74.2475 14.6059 73.7923 14.8912 73.3444 15.1235L72.0212 13.3426C72.8451 12.8353 73.5397 12.3044 74.1036 11.7456C74.6675 11.1882 75.1228 10.5868 75.4693 9.94411C75.8159 9.29999 76.07 8.60146 76.2286 7.84852C76.3872 7.09558 76.4665 6.27058 76.4665 5.37352V3.26616H72.779V1.33381H83.3187V3.26616H79.6312L79.6341 3.26764ZM85.3805 6.15587V0.87793H88.5466V19.3382H85.3805V8.08822H81.6078V6.15587H85.3805Z" fill="#9E9E9E"/>
<path d="M91.4529 9.69555H109.086V11.6279H101.863V13.2353H106.699V19.447H103.533V15.1676H93.8613V13.2353H98.6971V11.6279H91.4529V9.69555ZM93.5999 1.5529H98.6957V0.0102539H101.862V1.5529H106.958V3.48525H101.947C102.048 3.93525 102.261 4.35731 102.587 4.75584C102.913 5.15437 103.322 5.50584 103.812 5.80878C104.303 6.11319 104.866 6.35878 105.504 6.54702C106.14 6.73526 106.827 6.85143 107.564 6.89408L106.892 8.67496C105.417 8.63084 104.101 8.37496 102.944 7.90437C101.787 7.43378 100.898 6.7926 100.277 5.98231C99.6414 6.7926 98.7485 7.43378 97.5987 7.90437C96.4488 8.37496 95.1374 8.63231 93.663 8.67496L92.9904 6.89408C93.7276 6.84996 94.412 6.73526 95.0405 6.54702C95.669 6.35878 96.23 6.11319 96.722 5.80878C97.2125 5.50437 97.6222 5.15437 97.9467 4.75584C98.2713 4.35731 98.4915 3.93525 98.6076 3.48525H93.5984V1.5529H93.5999Z" fill="#9E9E9E"/>
<path d="M110.755 10.456H128.388V12.3884H110.755V10.456ZM115.114 19.3384C114.419 19.3384 113.924 19.1781 113.628 18.8604C113.331 18.5413 113.183 18.0575 113.183 17.406V13.6707H116.349V17.406H126.326V19.3384H115.114ZM113.942 4.87513C113.942 4.25307 114.068 3.66925 114.321 3.1266C114.573 2.58396 114.942 2.11631 115.427 1.72513C115.911 1.33396 116.5 1.0266 117.195 0.80307C117.888 0.57807 118.684 0.466309 119.58 0.466309C120.475 0.466309 121.252 0.57807 121.954 0.80307C122.656 1.02807 123.248 1.33543 123.733 1.72513C124.217 2.11631 124.586 2.58396 124.838 3.1266C125.091 3.66925 125.217 4.25307 125.217 4.87513C125.217 5.49719 125.091 6.09866 124.838 6.63395C124.586 7.16925 124.217 7.63248 123.733 8.02366C123.248 8.41484 122.655 8.72219 121.954 8.94719C121.254 9.17219 120.462 9.28395 119.58 9.28395C118.697 9.28395 117.888 9.17219 117.195 8.94719C116.5 8.72219 115.911 8.41484 115.427 8.02366C114.942 7.63248 114.573 7.16925 114.321 6.63395C114.068 6.09866 113.942 5.51189 113.942 4.87513ZM117.109 4.87513C117.109 5.61336 117.327 6.21043 117.76 6.66631C118.195 7.12219 118.801 7.35013 119.582 7.35013C120.364 7.35013 120.97 7.12219 121.403 6.66631C121.838 6.21043 122.054 5.61336 122.054 4.87513C122.054 4.13689 121.838 3.53983 121.403 3.08248C120.97 2.6266 120.362 2.39866 119.582 2.39866C118.803 2.39866 118.195 2.6266 117.76 3.08248C117.327 3.53836 117.109 4.13542 117.109 4.87513Z" fill="#9E9E9E"/>
<path d="M129.492 1.76908H132.702V0.0102539H135.869V1.76908H139.079V3.70143H129.494V1.76908H129.492ZM134.285 11.7808C133.635 11.7808 133.046 11.6941 132.517 11.5206C131.99 11.347 131.538 11.1044 131.162 10.7926C130.786 10.4808 130.497 10.0985 130.295 9.64114C130.093 9.18525 129.991 8.67496 129.991 8.11026C129.991 7.54555 130.091 7.03525 130.295 6.57937C130.498 6.12349 130.786 5.73967 131.162 5.4279C131.538 5.11614 131.99 4.87349 132.517 4.69996C133.045 4.52643 133.635 4.43967 134.285 4.43967C134.936 4.43967 135.525 4.52643 136.052 4.69996C136.579 4.87349 137.032 5.11614 137.408 5.4279C137.784 5.73967 138.073 6.12202 138.275 6.57937C138.477 7.03525 138.579 7.54555 138.579 8.11026C138.579 8.67496 138.478 9.18525 138.275 9.64114C138.073 10.097 137.784 10.4808 137.408 10.7926C137.032 11.1044 136.579 11.347 136.052 11.5206C135.525 11.6941 134.936 11.7808 134.285 11.7808ZM134.285 9.6529C134.763 9.6529 135.146 9.52202 135.434 9.26172C135.723 9.00143 135.869 8.61761 135.869 8.11026C135.869 7.6029 135.723 7.22055 135.434 6.96026C135.145 6.69996 134.761 6.56907 134.285 6.56907C133.81 6.56907 133.425 6.69996 133.136 6.96026C132.846 7.22055 132.702 7.60437 132.702 8.11026C132.702 8.61614 132.846 9.00143 133.136 9.26172C133.425 9.52349 133.808 9.6529 134.285 9.6529ZM135.305 16.0588C135.305 15.45 135.438 14.9044 135.706 14.4191C135.973 13.9338 136.353 13.522 136.845 13.1808C137.336 12.8411 137.929 12.5808 138.624 12.3985C139.318 12.2176 140.091 12.1264 140.944 12.1264C141.797 12.1264 142.571 12.2176 143.264 12.3985C143.959 12.5794 144.551 12.8397 145.042 13.1808C145.534 13.522 145.913 13.9338 146.182 14.4191C146.449 14.9044 146.583 15.4514 146.583 16.0588C146.583 16.6661 146.449 17.2132 146.182 17.6985C145.913 18.1838 145.534 18.5956 145.042 18.9367C144.551 19.2764 143.959 19.5382 143.264 19.7191C142.571 19.9 141.797 19.9911 140.944 19.9911C140.091 19.9911 139.317 19.9 138.624 19.7191C137.93 19.5382 137.337 19.2764 136.845 18.9367C136.353 18.5956 135.974 18.1838 135.706 17.6985C135.438 17.2132 135.305 16.6676 135.305 16.0588ZM138.471 16.0588C138.471 16.6661 138.691 17.1514 139.133 17.5132C139.574 17.875 140.177 18.0558 140.944 18.0558C141.71 18.0558 142.314 17.875 142.754 17.5132C143.195 17.1514 143.415 16.6661 143.415 16.0588C143.415 15.4514 143.195 14.9647 142.754 14.6029C142.314 14.2411 141.71 14.0603 140.944 14.0603C140.177 14.0603 139.574 14.2411 139.133 14.6029C138.693 14.9647 138.471 15.45 138.471 16.0588ZM143.937 7.22054H142.658V11.4338H139.709V0.879372H142.658V5.28819H143.937V0.879372H146.887V11.6514H143.937V7.22054Z" fill="#9E9E9E"/>
</svg>
