<svg width="74" height="20" viewBox="0 0 74 20" fill="none" xmlns="http://www.w3.org/2000/svg">
<path d="M2.5789 16.3521H1.45873V15.774H4.6102V16.3521H3.41047V17.1467H2.5789V16.3521ZM3.0414 15.5502C2.82958 15.5502 2.63903 15.5261 2.47068 15.478C2.30233 15.4299 2.1571 15.3624 2.03685 15.2755C1.9166 15.1885 1.8241 15.0849 1.75843 14.9646C1.69368 14.8444 1.6613 14.7094 1.6613 14.5595C1.66593 14.2607 1.78987 14.0212 2.03315 13.8408C2.27642 13.6604 2.6122 13.5698 3.0414 13.5698C3.4706 13.5698 3.80638 13.6604 4.04965 13.8408C4.29293 14.0212 4.41687 14.2617 4.4215 14.5595C4.4215 14.7094 4.38913 14.8435 4.32438 14.9646C4.25963 15.0849 4.1662 15.1885 4.04595 15.2755C3.9257 15.3624 3.77955 15.4299 3.60843 15.478C3.4373 15.5261 3.24768 15.5502 3.0414 15.5502ZM3.0414 14.9942C3.24398 14.9942 3.39753 14.9536 3.5039 14.8712C3.61028 14.7889 3.663 14.6853 3.663 14.5604C3.663 14.4355 3.61028 14.3319 3.5039 14.2496C3.39753 14.1673 3.24398 14.1266 3.0414 14.1266C2.83883 14.1266 2.68435 14.1673 2.5789 14.2496C2.47253 14.3319 2.4198 14.4355 2.4198 14.5604C2.4198 14.6853 2.47253 14.7889 2.5789 14.8712C2.68435 14.9536 2.83883 14.9942 3.0414 14.9942ZM2.5789 17.3789H7.0818V18.7664H3.41047V19.1059H7.0818V19.6479H3.2079C3.02012 19.6479 2.86843 19.5961 2.7528 19.4925C2.63718 19.3889 2.57983 19.2483 2.57983 19.0698V18.2244H6.24375V17.9209H2.57983V17.3789H2.5789ZM3.959 16.5547H5.0357V13.5771H5.83767V17.1116H3.959V16.5547ZM6.2789 13.5771H7.08087V17.1116H6.2789V13.5771Z" fill="#E10317"/>
<path d="M14.7917 16.5982C15.0951 16.4918 15.3985 16.3586 15.7019 16.1967C16.0053 16.0358 16.2726 15.8415 16.5039 15.6149H14.7834V14.972H16.9802C17.0764 14.7648 17.1245 14.5484 17.1245 14.3218V14.3005H14.8916V13.6576H17.9561V14.0258C17.9561 14.3828 17.9034 14.6982 17.797 14.973H19.0911V13.5781H19.9291V16.9099H19.0911V15.6159H17.4501C17.2143 15.9433 16.9016 16.2291 16.514 16.4724C16.1265 16.7157 15.6695 16.9358 15.1441 17.1338L14.7898 16.5991L14.7917 16.5982ZM16.317 19.6479C16.1098 19.6479 15.9627 19.6008 15.8758 19.5073C15.7888 19.413 15.7454 19.2696 15.7454 19.0772V17.2559H19.9301V19.6479H16.3161H16.317ZM19.092 17.8988H16.5843V19.0041H19.092V17.8988Z" fill="#E10317"/>
<path d="M30.1198 14.3727V15.0016C30.1198 15.3827 30.1485 15.7102 30.2068 15.9849C30.2642 16.2596 30.3539 16.5001 30.4741 16.7073C30.5944 16.9145 30.7489 17.1005 30.9366 17.2642C31.1244 17.4279 31.3482 17.5898 31.6091 17.748L31.1753 18.2974C31.031 18.2207 30.8858 18.1263 30.7415 18.0153C30.5972 17.9043 30.4593 17.785 30.3298 17.6573C30.1994 17.5297 30.0819 17.3946 29.9756 17.2522C29.8692 17.1097 29.7804 16.9691 29.7082 16.8295C29.6361 16.9738 29.5445 17.1199 29.4335 17.267C29.3225 17.414 29.1985 17.5556 29.0616 17.6934C28.9247 17.8303 28.7823 17.9579 28.6352 18.0763C28.4882 18.1947 28.3429 18.2919 28.1977 18.3687L27.7639 17.8192C28.0284 17.6555 28.2532 17.4881 28.4363 17.3169C28.6195 17.1458 28.7684 16.9534 28.8841 16.7388C28.9997 16.5242 29.0829 16.2772 29.1338 15.9979C29.1847 15.7185 29.2097 15.3864 29.2097 15.0007V14.3717H27.9452V13.7288H31.3852V14.3717H30.1208L30.1198 14.3727ZM32.2881 16.1209H30.9579V15.478H32.2881V13.5771H33.1261V19.6479H32.2881V16.1209Z" fill="#E10317"/>
<path d="M40.6316 16.5113H46.435V17.1541H43.956V17.7609H45.7126V19.6831H44.8745V18.4038H41.3623V17.7609H43.1189V17.1541H40.6325V16.5113H40.6316ZM43.118 13.9102V13.2885H43.956V13.9102H45.6182V14.5317H43.9773C44.0161 14.6622 44.0966 14.7824 44.2196 14.8934C44.3427 15.0044 44.4934 15.1006 44.671 15.182C44.8496 15.2644 45.0503 15.3328 45.2741 15.3883C45.498 15.4438 45.7301 15.4808 45.9716 15.5002L45.7255 16.0996C45.4841 16.0904 45.2528 16.0608 45.0318 16.0127C44.8098 15.9646 44.6044 15.9007 44.4139 15.8212C44.2233 15.7416 44.0541 15.6491 43.9042 15.5428C43.7544 15.4373 43.6323 15.3189 43.5361 15.1885C43.3381 15.4484 43.0449 15.6593 42.6545 15.8212C42.2642 15.9831 41.8285 16.0756 41.3466 16.0996L41.1005 15.5002C41.341 15.4808 41.5741 15.4438 41.798 15.3883C42.0218 15.3328 42.2235 15.2644 42.4011 15.182C42.5796 15.1006 42.7304 15.0035 42.8525 14.8934C42.9755 14.7824 43.056 14.6622 43.0948 14.5317H41.4539V13.9102H43.118Z" fill="#E10317"/>
<path d="M53.7194 16.7138H59.5228V17.3567H53.7194V16.7138ZM58.8725 19.6479H55.0208C54.8136 19.6479 54.6666 19.6008 54.5796 19.5073C54.4927 19.413 54.4492 19.2696 54.4492 19.0772V17.7406H55.2872V19.0051H58.8716V19.6479H58.8725ZM54.7813 14.8712C54.7813 14.6687 54.8248 14.4837 54.9117 14.3144C54.9987 14.146 55.1217 14.0026 55.2799 13.8842C55.439 13.7658 55.6314 13.6743 55.858 13.6095C56.0846 13.5448 56.3399 13.5115 56.6239 13.5115C56.9079 13.5115 57.1632 13.5439 57.3898 13.6095C57.6164 13.6743 57.8088 13.7658 57.9679 13.8842C58.127 14.0026 58.25 14.146 58.3361 14.3144C58.423 14.4827 58.4665 14.6687 58.4665 14.8712C58.4665 15.0738 58.423 15.2588 58.3361 15.4281C58.2491 15.5964 58.1261 15.7398 57.9679 15.8582C57.8088 15.9766 57.6164 16.0682 57.3898 16.1329C57.1632 16.1977 56.9079 16.231 56.6239 16.231C56.3399 16.231 56.0846 16.1986 55.858 16.1329C55.6314 16.0682 55.439 15.9766 55.2799 15.8582C55.1208 15.7407 54.9977 15.5973 54.9117 15.4281C54.8248 15.2597 54.7813 15.0738 54.7813 14.8712ZM55.6203 14.8712C55.6203 15.0831 55.7081 15.2551 55.8839 15.3883C56.0596 15.5206 56.3066 15.5872 56.6248 15.5872C56.943 15.5872 57.19 15.5197 57.3657 15.3846C57.5415 15.2496 57.6294 15.0784 57.6294 14.8712C57.6294 14.664 57.5415 14.4929 57.3657 14.3578C57.19 14.2228 56.943 14.1553 56.6248 14.1553C56.3066 14.1553 56.0596 14.2219 55.8839 14.3541C55.7081 14.4864 55.6203 14.6585 55.6203 14.8712Z" fill="#E10317"/>
<path d="M66.8581 13.8371H67.9783V13.2876H68.8385V13.8371H69.9587V14.4799H66.8581V13.8371ZM68.3973 17.1985C68.1947 17.1985 68.0079 17.1698 67.8377 17.1116C67.6665 17.0533 67.5194 16.9728 67.3964 16.8692C67.2734 16.7656 67.1772 16.6417 67.1069 16.4974C67.0366 16.3531 67.0024 16.194 67.0024 16.0201C67.0024 15.8462 67.0375 15.688 67.1069 15.5428C67.1763 15.3985 67.2734 15.2745 67.3964 15.1709C67.5194 15.0673 67.6665 14.9869 67.8377 14.9286C68.0088 14.8712 68.1956 14.8416 68.3973 14.8416C68.5989 14.8416 68.7867 14.8703 68.9578 14.9286C69.1289 14.9869 69.276 15.0673 69.3991 15.1709C69.5221 15.2745 69.6183 15.3985 69.6877 15.5428C69.757 15.6871 69.7922 15.8462 69.7922 16.0201C69.7922 16.194 69.757 16.3521 69.6877 16.4974C69.6174 16.6417 69.5212 16.7656 69.3991 16.8692C69.276 16.9728 69.1289 17.0533 68.9578 17.1116C68.7867 17.1689 68.5999 17.1985 68.3973 17.1985ZM68.3973 16.613C68.5999 16.613 68.7571 16.5603 68.8709 16.4539C68.9837 16.3475 69.0411 16.2032 69.0411 16.0201C69.0411 15.8369 68.9847 15.6926 68.8709 15.5863C68.758 15.4799 68.5999 15.4271 68.3973 15.4271C68.1947 15.4271 68.0375 15.4799 67.9237 15.5863C67.8108 15.6926 67.7535 15.8369 67.7535 16.0201C67.7535 16.2032 67.8099 16.3475 67.9237 16.4539C68.0365 16.5603 68.1947 16.613 68.3973 16.613ZM70.6524 19.8653C70.3777 19.8653 70.1298 19.8348 69.9078 19.7746C69.6858 19.7145 69.4962 19.6285 69.3371 19.5184C69.178 19.4074 69.0559 19.2733 68.9717 19.117C68.8875 18.9606 68.845 18.7858 68.845 18.5925C68.845 18.3992 68.8866 18.2253 68.9717 18.069C69.0559 17.9126 69.178 17.7785 69.3371 17.6675C69.4962 17.5565 69.6858 17.4714 69.9078 17.4113C70.1298 17.3511 70.3777 17.3206 70.6524 17.3206C70.9272 17.3206 71.175 17.3511 71.397 17.4113C71.619 17.4714 71.8087 17.5574 71.9678 17.6675C72.1269 17.7785 72.248 17.9117 72.3331 18.069C72.4173 18.2253 72.4599 18.4001 72.4599 18.5925C72.4599 18.7849 72.4173 18.9597 72.3331 19.117C72.249 19.2733 72.1269 19.4074 71.9678 19.5184C71.8087 19.6294 71.6181 19.7145 71.397 19.7746C71.175 19.8348 70.9272 19.8653 70.6524 19.8653ZM70.6524 19.2215C70.9993 19.2215 71.2472 19.1623 71.397 19.0448C71.546 18.9264 71.6209 18.7757 71.6209 18.5934C71.6209 18.4112 71.546 18.2595 71.397 18.142C71.2472 18.0246 70.9993 17.9653 70.6524 17.9653C70.3056 17.9653 70.0577 18.0246 69.9078 18.142C69.7589 18.2604 69.6839 18.4112 69.6839 18.5934C69.6839 18.7757 69.7589 18.9274 69.9078 19.0448C70.0567 19.1632 70.3056 19.2215 70.6524 19.2215ZM71.7578 15.6159H71.1649V17.0181H70.3629V13.5781H71.1649V14.973H71.7578V13.5781H72.5598V17.0903H71.7578V15.6159Z" fill="#E10317"/>
<path d="M1.87775 5.14578H0V4.03115H5.58422V5.14578H3.70555V6.32238H1.87775V5.14578ZM2.8046 3.68058C2.06183 3.68058 1.46705 3.5224 1.02028 3.20512C0.573503 2.88785 0.350573 2.43275 0.350573 1.84075C0.358898 1.24782 0.584598 0.793649 1.02675 0.475449C1.4689 0.158174 2.06183 0 2.8046 0C3.54738 0 4.1403 0.159099 4.58245 0.475449C5.0246 0.792724 5.2503 1.24782 5.25862 1.84075C5.25862 2.43367 5.03477 2.88877 4.58892 3.20512C4.14215 3.5224 3.54738 3.68058 2.8046 3.68058ZM1.87775 6.7229H9.86605V9.15195H3.70555V9.66532H9.86605V10.6541H3.09227C2.72505 10.6541 2.4309 10.5542 2.20983 10.3535C1.98875 10.1528 1.87775 9.87808 1.87775 9.5275V8.16313H8.03825V7.71265H1.87775V6.7229ZM2.8046 2.60387C2.91283 2.60387 3.02198 2.58907 3.1302 2.5604C3.23843 2.53172 3.33463 2.48548 3.41788 2.42258C3.50113 2.35968 3.56772 2.28105 3.6186 2.18485C3.66855 2.08865 3.69352 1.97395 3.69352 1.84075C3.69352 1.57342 3.60195 1.37918 3.41788 1.258C3.2338 1.13683 3.02938 1.0767 2.8046 1.0767C2.57983 1.0767 2.37448 1.13775 2.19133 1.258C2.00725 1.37918 1.91568 1.57342 1.91568 1.84075C1.91568 1.97395 1.94065 2.08957 1.9906 2.18485C2.04055 2.28105 2.10715 2.35968 2.19133 2.42258C2.27458 2.48548 2.36892 2.5308 2.47345 2.5604C2.57797 2.59 2.68805 2.60387 2.80553 2.60387H2.8046ZM4.2698 5.43345H5.97273V0.0120255H7.67565V6.2604H4.2698V5.43345ZM8.16405 0.0120255H9.86697V6.2604H8.16405V0.0120255Z" fill="#E10317"/>
<path d="M16.1153 3.60565C15.6898 4.22355 15.1238 4.7471 14.4189 5.17723C13.7131 5.60735 12.8936 5.98105 11.9584 6.29832L11.2822 5.3465C11.8085 5.16335 12.3358 4.93303 12.8658 4.65738C13.3959 4.38173 13.8491 4.03115 14.2247 3.60565H11.3202V2.49102H14.9008C15.0424 2.11547 15.1136 1.70663 15.1136 1.26355H11.5079V0.148924H16.9423V0.77515C16.9423 1.09243 16.9192 1.39305 16.8738 1.67703C16.8276 1.961 16.7592 2.23202 16.6676 2.49102H18.5333V0.0120255H20.3611V5.90982H18.5333V3.60565H16.1153ZM14.0998 10.6551C13.6992 10.6551 13.4134 10.5635 13.2423 10.3794C13.0712 10.1954 12.9852 9.916 12.9852 9.54045V6.38527H20.3602V10.6551H14.0998ZM18.5324 7.4999H14.8139V9.54138H18.5324V7.4999Z" fill="#E10317"/>
<path d="M23.0094 7.8255C22.6089 7.8255 22.323 7.73392 22.1519 7.54985C21.9808 7.3667 21.8957 7.08642 21.8957 6.71087V0.274725H27.1423V1.38935H23.7244V6.71087H28.7952V0.0120255H30.6231V10.6551H28.7952V7.8255H23.0094Z" fill="#E10317"/>
<path d="M36.321 1.38935V2.60387C36.321 3.12187 36.3627 3.59085 36.4459 4.01265C36.5292 4.43445 36.6716 4.82203 36.8714 5.17723C37.0721 5.53243 37.3367 5.86358 37.6669 6.17253C37.9962 6.48148 38.4032 6.7821 38.8879 7.0744L38.1239 8.10115C37.8482 7.96795 37.5744 7.80885 37.3034 7.6257C37.0324 7.44255 36.7771 7.23997 36.5394 7.01797C36.3016 6.7969 36.0842 6.56565 35.8881 6.3233C35.692 6.08095 35.5311 5.82658 35.4062 5.55925C35.273 5.82658 35.1056 6.08928 34.9058 6.34828C34.7051 6.60728 34.484 6.85332 34.2426 7.08735C34.0002 7.32137 33.7458 7.53598 33.4785 7.73208C33.2112 7.92818 32.9485 8.09283 32.6895 8.22695L31.9255 7.2002C32.4009 6.9079 32.8014 6.60172 33.127 6.27982C33.4526 5.95885 33.7153 5.61198 33.916 5.24105C34.1168 4.8692 34.262 4.46683 34.3545 4.033C34.4461 3.59918 34.4923 3.1228 34.4923 2.60572V1.3912H32.3639V0.276574H38.4495V1.3912H36.321V1.38935ZM39.639 0.0120255H41.4668V10.6551H39.639V0.0120255Z" fill="#E10317"/>
<path d="M44.8107 2.1534H47.9159V3.26802H44.8107V4.1699H48.5422V5.28453H44.0975C43.697 5.28453 43.4112 5.19295 43.24 5.00887C43.0689 4.82572 42.9838 4.54545 42.9838 4.1699V0.150775H48.1675V1.2654H44.8116V2.15433L44.8107 2.1534ZM45.5747 10.6551C45.1742 10.6551 44.8884 10.5635 44.7173 10.3794C44.5462 10.1954 44.4611 9.916 44.4611 9.54045V7.71265H50.0083V6.99855H44.4611V5.88392H51.8361V8.82635H46.2889V9.54045H51.9609V10.6551H45.5747ZM50.0074 2.1534V0.0120255H51.8352V5.47137H50.0074V3.26802H48.4543V2.1534H50.0074Z" fill="#E10317"/>
<path d="M54.3345 5.40848C53.934 5.40848 53.6583 5.32707 53.5085 5.16427C53.3586 5.00147 53.2828 4.7323 53.2828 4.35675V0.14985H54.9857V1.7279H56.2631V0.14985H57.9661V5.40848H54.3345ZM56.2622 4.2439V2.8416H54.9848V4.2439H56.2622ZM56.3251 8.58862C56.3251 8.22972 56.4 7.90042 56.5508 7.5998C56.7006 7.29917 56.9143 7.04018 57.1891 6.82373C57.4647 6.60635 57.794 6.43985 58.1779 6.3233C58.5617 6.20675 58.9873 6.14755 59.4553 6.14755C59.9234 6.14755 60.3359 6.20582 60.7198 6.3233C61.1037 6.43985 61.4339 6.60728 61.7086 6.82373C61.9843 7.0411 62.1988 7.29917 62.3533 7.5998C62.5078 7.90042 62.5846 8.22972 62.5846 8.58862C62.5846 8.94752 62.5069 9.28792 62.3533 9.58392C62.1988 9.87992 61.9843 10.1371 61.7086 10.3545C61.433 10.5709 61.1037 10.7383 60.7198 10.8549C60.3359 10.9714 59.9141 11.0297 59.4553 11.0297C58.9965 11.0297 58.5617 10.9714 58.1779 10.8549C57.794 10.7383 57.4638 10.5709 57.1891 10.3545C56.9134 10.1371 56.7006 9.88085 56.5508 9.58392C56.4009 9.28792 56.3251 8.95585 56.3251 8.58862ZM58.1538 8.58862C58.1538 8.98915 58.2667 9.30828 58.4914 9.54693C58.7171 9.78465 59.0381 9.90768 59.4553 9.916C59.8725 9.92433 60.1944 9.805 60.4192 9.55895C60.6449 9.3129 60.7568 8.98915 60.7568 8.58862C60.7568 8.1881 60.6439 7.86435 60.4192 7.6183C60.1935 7.37225 59.8725 7.25293 59.4553 7.26125C59.0381 7.26958 58.7162 7.3926 58.4914 7.63032C58.2657 7.86805 58.1538 8.18717 58.1538 8.58862ZM61.0583 3.41788H60.3192V5.72205H58.6163V0.0120255H60.3192V2.30325H61.0583V0.0120255H62.7613V5.84692H61.0583V3.41788Z" fill="#E10317"/>
<path d="M63.8204 7.5369H74V8.65152H63.8204V7.5369ZM70.732 4.43168H65.1478V3.31705H70.732V1.38843H65.2726V0.273799H72.5598V6.57212H70.732V4.43075V4.43168Z" fill="#E10317"/>
</svg>
